<?xml version="1.0" encoding="utf-8"?>
<!-- Generator: Adobe Illustrator 24.0.2, SVG Export Plug-In . SVG Version: 6.00 Build 0)  -->
<svg version="1.1" id="Layer_1" xmlns="http://www.w3.org/2000/svg" xmlns:xlink="http://www.w3.org/1999/xlink" x="0px" y="0px"
	 viewBox="0 0 100 100" style="enable-background:new 0 0 100 100;" xml:space="preserve">
<style type="text/css">
	.st0{clip-path:url(#SVGID_2_);}
	.st1{fill:#FFFFFF;}
</style>
<g>
	<defs>
		<rect id="SVGID_1_" x="0.5" y="14.2" width="99" height="71.6"/>
	</defs>
	<clipPath id="SVGID_2_">
		<use xlink:href="#SVGID_1_"  style="overflow:visible;"/>
	</clipPath>
	<g class="st0">
		<path class="st1" d="M73.5,85.8c0,0-3.1-3.7-5.6-6.9c11.1-3.1,15.4-10.1,15.4-10.1c-3.5,2.3-6.8,3.9-9.7,5
			c-4.2,1.8-8.3,3-12.3,3.7c-8.1,1.5-15.6,1.1-22-0.1c-4.8-0.9-9-2.3-12.5-3.7c-2-0.8-4.1-1.7-6.2-2.9c-0.2-0.2-0.5-0.2-0.8-0.4
			c-0.2-0.1-0.2-0.2-0.3-0.2c-1.5-0.9-2.4-1.5-2.4-1.5s4.1,6.8,14.8,10.1c-2.5,3.3-5.7,7-5.7,7c-18.7-0.6-25.8-13-25.8-13
			c0-27.4,12.2-49.7,12.2-49.7c12.2-9.1,23.8-8.9,23.8-8.9l0.9,1c-15.3,4.4-22.3,11.1-22.3,11.1s1.9-1,5-2.4c9-4,16.3-5.1,19.2-5.4
			c0.5-0.1,0.9-0.2,1.4-0.2c5.2-0.7,11-0.9,17.1-0.2c8.1,0.9,16.7,3.3,25.5,8.2c0,0-6.7-6.4-21.1-10.8l1.2-1.3c0,0,11.6-0.2,23.8,9
			c0,0,12.2,22.3,12.2,49.7C99.5,72.8,92.3,85.2,73.5,85.8z M34.2,46c-4.8,0-8.6,4.3-8.6,9.4c0,5.2,3.9,9.4,8.6,9.4
			c4.8,0,8.6-4.3,8.6-9.4C42.8,50.3,39,46,34.2,46z M65.1,46c-4.8,0-8.6,4.3-8.6,9.4c0,5.2,3.9,9.4,8.6,9.4c4.8,0,8.6-4.3,8.6-9.4
			C73.7,50.3,69.9,46,65.1,46z"/>
	</g>
</g>
</svg>
