<?xml version="1.0" encoding="utf-8"?>
<!-- Generator: Adobe Illustrator 24.0.2, SVG Export Plug-In . SVG Version: 6.00 Build 0)  -->
<svg version="1.1" id="Layer_1" xmlns="http://www.w3.org/2000/svg" xmlns:xlink="http://www.w3.org/1999/xlink" x="0px" y="0px"
	 viewBox="0 0 77.8 55" style="enable-background:new 0 0 77.8 55;" xml:space="preserve">
<style type="text/css">
	.st0{fill:#FFFFFF;}
</style>
<text transform="matrix(1 0 0 1 -1706.6301 1546.8828)" style="fill:#1D1D1B; font-family:'Frapan-Book'; font-size:64.9234px; letter-spacing:1;">A</text>
<text transform="matrix(1 0 0 1 -1664.3301 1546.8828)" style="fill:#1D1D1B; font-family:'Frapan-Book'; font-size:64.9234px; letter-spacing:-2;">N</text>
<text transform="matrix(1 0 0 1 -1625.4302 1546.8828)" style="fill:#1D1D1B; font-family:'Frapan-Book'; font-size:64.9234px;">I</text>
<text transform="matrix(1 0 0 1 -1609.9302 1546.8828)" style="fill:#1D1D1B; font-family:'Frapan-Book'; font-size:64.9234px;">M</text>
<text transform="matrix(1 0 0 1 -1556.4302 1546.8828)" style="fill:#1D1D1B; font-family:'Frapan-Book'; font-size:64.9234px; letter-spacing:1;">A</text>
<text transform="matrix(1 0 0 1 -1514.1301 1546.8828)" style="fill:#1D1D1B; font-family:'Frapan-Book'; font-size:64.9234px;">L</text>
<text transform="matrix(1 0 0 1 -1482.2301 1546.8828)" style="fill:#1D1D1B; font-family:'Frapan-Book'; font-size:64.9234px; letter-spacing:-2;"> </text>
<text transform="matrix(1 0 0 1 -1472.3301 1546.8828)" style="fill:#1D1D1B; font-family:'Frapan-Book'; font-size:64.9234px;">G</text>
<text transform="matrix(1 0 0 1 -1430.4302 1546.8828)" style="fill:#1D1D1B; font-family:'Frapan-Book'; font-size:64.9234px; letter-spacing:1;">A</text>
<text transform="matrix(1 0 0 1 -1388.0302 1546.8828)" style="fill:#1D1D1B; font-family:'Frapan-Book'; font-size:64.9234px; letter-spacing:-1;">N</text>
<text transform="matrix(1 0 0 1 -1347.9302 1546.8828)" style="fill:#1D1D1B; font-family:'Frapan-Book'; font-size:64.9234px;">G</text>
<text transform="matrix(1 0 0 1 -1706.6301 1624.7828)" style="fill:#1D1D1B; font-family:'Frapan-Book'; font-size:64.9234px;">P</text>
<text transform="matrix(1 0 0 1 -1670.8301 1624.7828)" style="fill:#1D1D1B; font-family:'Frapan-Book'; font-size:64.9234px;">R</text>
<text transform="matrix(1 0 0 1 -1637.1301 1624.7828)" style="fill:#1D1D1B; font-family:'Frapan-Book'; font-size:64.9234px; letter-spacing:1;">OJ</text>
<text transform="matrix(1 0 0 1 -1563.2301 1624.7828)" style="fill:#1D1D1B; font-family:'Frapan-Book'; font-size:64.9234px;">E</text>
<text transform="matrix(1 0 0 1 -1532.5302 1624.7828)" style="fill:#1D1D1B; font-family:'Frapan-Book'; font-size:64.9234px;">CT</text>
<g>
	<g>
		<path class="st0" d="M2,17.3L5.9,2.5H11l3.9,14.8h-4.2l-0.3-2.1H6.7l-0.3,2.1H2z M9.2,12V5.7H7.9V12H9.2z"/>
		<path class="st0" d="M16.2,17.3V2.5H20L21.3,8h0.4V2.5h4v14.8h-3.8l-1.3-5.5h-0.4v5.5H16.2z"/>
		<path class="st0" d="M27.8,2.5h7.4v3.2h-1.7v8.5h1.7v3.2h-7.4v-3.2h1.7V5.7h-1.7C27.8,5.7,27.8,2.5,27.8,2.5z"/>
		<path class="st0" d="M37,17.3l1.5-14.8h4l1.7,8.2h0.4l1.7-8.2h4l1.5,14.8h-4L47.3,12h-0.4L46,17.3h-3.2L41.9,12h-0.4L41,17.3H37z"
			/>
		<path class="st0" d="M53.1,17.3L57,2.5h5.1L66,17.3h-4.2l-0.3-2.1h-3.7l-0.3,2.1H53.1z M60.3,12V5.7H59V12H60.3z"/>
		<path class="st0" d="M67.3,2.5h4v11.7h4.5v3.2h-8.5V2.5z"/>
	</g>
	<g>
		<path class="st0" d="M21.6,19.8c2.4,0,4,1.6,4,4v1.7H22V23h-1.3v8.9H22v-3h-0.4v-2.1h4.5v2.1h-0.4V31c0,2.4-1.6,4-4,4h-0.8
			c-2.4,0-4-1.6-4-4v-7.2c0-2.4,1.6-4,4-4H21.6z"/>
		<path class="st0" d="M26.1,34.8L30,20h5.1L39,34.8h-4.2l-0.3-2.1h-3.7l-0.3,2.1H26.1z M33.3,29.5v-6.4H32v6.4H33.3z"/>
		<path class="st0" d="M40.3,34.8V20h3.8l1.3,5.5h0.4V20h4v14.8H46l-1.3-5.5h-0.4v5.5H40.3z"/>
		<path class="st0" d="M56.6,19.8c2.4,0,4,1.6,4,4v1.7H57V23h-1.3v8.9H57v-3h-0.4v-2.1H61v2.1h-0.4V31c0,2.4-1.6,4-4,4h-0.8
			c-2.4,0-4-1.6-4-4v-7.2c0-2.4,1.6-4,4-4H56.6z"/>
	</g>
	<g>
		<path class="st0" d="M6.3,48.7v3.6h-4V37.4h5.3c2.4,0,4,1.6,4,4v3.2c0,2.4-1.6,4-4,4L6.3,48.7L6.3,48.7z M7.5,45.5v-4.9H6.3v4.9
			H7.5z"/>
		<path class="st0" d="M18.5,46.6h-1.3v5.7h-4V37.4h5.3c2.4,0,4,1.6,4,4.1c0,2.4-1.5,3.9-3.6,3.9v0.2c2.1,0,3.6,1.5,3.6,3.9v1.3
			c0,0.4,0.2,0.9,0.4,1.3v0.2h-4c-0.3-0.4-0.4-0.6-0.4-1.7V46.6z M18.5,44.4v-3.8h-1.3v3.8H18.5z"/>
		<path class="st0" d="M27.9,52.5c-2.4,0-4-1.6-4-4v-7.2c0-2.4,1.6-4,4-4h1.3c2.4,0,4,1.6,4,4v7.2c0,2.4-1.6,4-4,4H27.9z M27.9,49.3
			h1.3v-8.9h-1.3V49.3z"/>
		<path class="st0" d="M44.2,48.1c0,2.4-2,4.4-4.5,4.4h-0.8c-2.4,0-4-2-4-4.4v-3.2h4v4.5h1.3v-8.7h-4.9v-3.2h8.9
			C44.2,37.5,44.2,48.1,44.2,48.1z"/>
		<path class="st0" d="M45.9,37.4h7.8v3.2h-3.8v2.6h3v3.2h-3V49h3.8v3.2h-7.8V37.4z"/>
		<path class="st0" d="M59.2,52.5c-2.4,0-4-1.6-4-4v-7.2c0-2.4,1.6-4,4-4h1.3c2.4,0,4,1.6,4,4v3h-4v-3.8h-1.3v8.9h1.3v-3.8h4v3
			c0,2.4-1.6,4-4,4h-1.3V52.5z"/>
		<path class="st0" d="M66.2,37.4h9.3v3.2h-2.6v11.7h-4V40.6h-2.6v-3.2H66.2z"/>
	</g>
</g>
</svg>
