<?xml version="1.0" encoding="utf-8"?>
<!-- Generator: Adobe Illustrator 24.0.2, SVG Export Plug-In . SVG Version: 6.00 Build 0)  -->
<svg version="1.1" id="Layer_1" xmlns="http://www.w3.org/2000/svg" xmlns:xlink="http://www.w3.org/1999/xlink" x="0px" y="0px"
	 viewBox="0 0 100 100" style="enable-background:new 0 0 100 100;" xml:space="preserve">
<style type="text/css">
	.st0{fill:#FFFFFF;}
</style>
<path class="st0" d="M12.3,26.5c0-1.2-0.6-2.5-1.2-3.1L1.7,12.3v-1.9h28.5l22.3,48.9l19.8-48.9h27.2v1.9l-8,7.4
	c-0.6,0.6-1.2,1.2-0.6,2.5v55.7c0,0.6,0,1.9,0.6,2.5l7.4,7.4v1.9h-39v-1.9l8-8c0.6-0.6,0.6-1.2,0.6-2.5V32.1L46.3,88.4h-2.5
	l-26-56.3v37.7c0,1.9,0.6,3.1,1.2,4.3l10.5,12.4v1.9H0.5v-1.9L11,74.1c1.2-1.2,1.9-2.5,1.2-4.3V26.5z"/>
</svg>
