<?xml version="1.0" encoding="utf-8"?>
<!-- Generator: Adobe Illustrator 24.0.2, SVG Export Plug-In . SVG Version: 6.00 Build 0)  -->
<svg version="1.1" id="Layer_1" xmlns="http://www.w3.org/2000/svg" xmlns:xlink="http://www.w3.org/1999/xlink" x="0px" y="0px"
	 viewBox="0 0 100 100" style="enable-background:new 0 0 100 100;" xml:space="preserve">
<style type="text/css">
	.st0{fill:#FFFFFF;}
</style>
<path class="st0" d="M7.3,44.3c26.6-11.6,44.3-19.2,53.2-22.9C85.8,10.9,91,9,94.5,9c0.8,0,2.4,0.2,3.5,1.1c0.9,0.7,1.2,1.8,1.3,2.5
	s0.3,2.3,0.2,3.6c-1.4,14.4-7.3,49.4-10.3,65.5c-1.3,6.8-3.8,9.1-6.2,9.3c-5.3,0.5-9.3-3.5-14.4-6.9c-8-5.3-12.6-8.5-20.3-13.7
	c-9-5.9-3.2-9.2,2-14.5c1.3-1.4,24.7-22.6,25.1-24.5c0.1-0.2,0.1-1.1-0.4-1.6c-0.5-0.5-1.3-0.3-1.9-0.2c-0.8,0.2-13.6,8.7-38.5,25.4
	c-3.6,2.5-6.9,3.7-9.9,3.7c-3.3-0.1-9.5-1.8-14.2-3.4c-5.7-1.9-10.2-2.8-9.9-6C0.7,47.7,3,46,7.3,44.3z"/>
</svg>
