<?xml version="1.0" encoding="utf-8"?>
<!-- Generator: Adobe Illustrator 24.0.2, SVG Export Plug-In . SVG Version: 6.00 Build 0)  -->
<svg version="1.1" id="Layer_1" xmlns="http://www.w3.org/2000/svg" xmlns:xlink="http://www.w3.org/1999/xlink" x="0px" y="0px"
	 viewBox="0 0 100 100" style="enable-background:new 0 0 100 100;" xml:space="preserve">
<style type="text/css">
	.st0{fill:#FFFFFF;}
</style>
<path class="st0" d="M99.5,19.1c-3.7,1.9-7.4,2.5-11.8,3.1c4.3-2.5,7.4-6.2,8.7-11.1c-3.7,2.5-8,3.7-13,4.9
	c-3.7-3.7-9.3-6.2-14.8-6.2c-13,0-22.9,12.4-19.8,24.8c-16.7-0.6-31.6-8.7-42.1-21c-5.6,9.3-2.5,21,6.2,27.2c-3.1,0-6.2-1.2-9.3-2.5
	c0,9.3,6.8,17.9,16.1,20.4c-3.1,0.6-6.2,1.2-9.3,0.6c2.5,8,9.9,14.2,19.2,14.2c-7.4,5.6-18.6,8.7-29.1,7.4
	c9.3,5.6,19.8,9.3,30.9,9.3c37.7,0,58.8-31.6,57.5-60.6C93.3,27.1,97,23.4,99.5,19.1z"/>
</svg>
